<?xml version="1.0" encoding="UTF-8"?>
<svg width="64px" height="64px" viewBox="0 0 64 64" version="1.1" xmlns="http://www.w3.org/2000/svg" xmlns:xlink="http://www.w3.org/1999/xlink">
    <!-- Generator: Sketch 47.1 (45422) - http://www.bohemiancoding.com/sketch -->
    <title>Button</title>
    <desc>Created with Sketch.</desc>
    <defs>
        <path d="M32,64 C49.673112,64 64,49.673112 64,32 C64,14.326888 49.673112,0 32,0 C14.326888,0 0,14.326888 0,32 C0,49.673112 14.326888,64 32,64 Z" id="path-1"></path>
    </defs>
    <g id="Page-1" stroke="none" stroke-width="1" fill="none" fill-rule="evenodd">
        <g id="My-Day-Second-Version" transform="translate(-149.000000, -635.000000)">
            <g id="Button" transform="translate(149.000000, 635.000000)">
                <g>
                    <use fill-opacity="0.0299999993" fill="#FFFFFF" fill-rule="evenodd" xlink:href="#path-1"></use>
                    <path stroke="#6859EA" stroke-width="1" d="M32,63.5 C49.3969696,63.5 63.5,49.3969696 63.5,32 C63.5,14.6030304 49.3969696,0.5 32,0.5 C14.6030304,0.5 0.5,14.6030304 0.5,32 C0.5,49.3969696 14.6030304,63.5 32,63.5 Z"></path>
                </g>
                <g id="restaurant-interface-symbol-of-fork-and-knife-couple" transform="translate(26.000000, 19.000000)" fill-rule="nonzero" fill="#FFFFFF">
                    <path d="M2.33325291,9.49919425 L2.33325291,23.2352572 C2.33325291,23.5933898 2.47604388,23.9031572 2.76220667,24.1647366 C3.04333548,24.4220198 3.37601424,24.5514808 3.7593233,24.5555556 C4.14239034,24.5514808 4.47531112,24.4219756 4.75673035,24.1647366 C5.04260272,23.9031572 5.18534529,23.5933898 5.18534529,23.2352572 L5.18534529,9.49919425 C5.61429905,9.36176099 7.22222222,8.05040935 7.22222222,7.6299601 L7.22222222,2.10530225 C7.22222222,1.92667886 7.15053631,1.771618 7.00774534,1.64069543 C6.86466394,1.5100386 6.69520252,1.44444444 6.49999032,1.44444444 C6.30419727,1.44444444 6.13502627,1.5100386 5.9922353,1.64069543 C5.8491539,1.77188374 5.77775842,1.92667886 5.77775842,2.10530225 L5.77775842,6.40103299 C5.77775842,6.58018786 5.70607251,6.73498298 5.56328153,6.86563981 C5.42020014,6.99656238 5.25102914,7.06162505 5.05552651,7.06162505 C4.85973347,7.06162505 4.69056247,6.99656238 4.54777149,6.86563981 C4.40498052,6.73498298 4.33329461,6.57992212 4.33329461,6.40103299 L4.33329461,2.10530225 C4.33329461,1.92667886 4.2616087,1.771618 4.11881773,1.64069543 C3.97602675,1.5100386 3.80661374,1.44444444 3.61111111,1.44444444 C3.41531806,1.44444444 3.24614706,1.5100386 3.10335609,1.64069543 C2.96027469,1.77188374 2.88887921,1.92667886 2.88887921,2.10530225 L2.88887921,6.40103299 C2.88887921,6.58018786 2.8171933,6.73498298 2.67440233,6.86563981 C2.53132093,6.99656238 2.36214993,7.06162505 2.16664731,7.06162505 C1.97085426,7.06162505 1.80168326,6.99656238 1.65889228,6.86563981 C1.51581089,6.73498298 1.4444154,6.57992212 1.4444154,6.40103299 L1.4444154,2.10530225 C1.4444154,1.92667886 1.37301992,1.771618 1.22993852,1.64069543 C1.08714755,1.5100386 0.917734527,1.44444444 0.722183499,1.44444444 C0.526390453,1.44444444 0.357219452,1.5100386 0.214476882,1.64069543 C0.071685909,1.77188374 0,1.92667886 0,2.10530225 L0,7.62973865 C0.000145211159,8.05009931 1.90429914,9.36149525 2.33325291,9.49919425 Z" id="Shape"></path>
                    <path d="M3.16297222,24.5689167 C3.11638889,24.5689167 3.07233333,24.5555556 3.02575,24.5555556 C2.97952778,24.5555556 2.93727778,24.5689167 2.88888889,24.5689167 L3.16297222,24.5689167 Z" id="Shape"></path>
                    <path d="M11.8292778,24.5689167 C11.7826944,24.5689167 11.739,24.5555556 11.6924167,24.5555556 C11.6458333,24.5555556 11.6014167,24.5689167 11.5555556,24.5689167 L11.8292778,24.5689167 Z" id="Shape"></path>
                    <path d="M8.98883103,12.2097483 L10.4528569,12.2097483 L10.4528569,23.200422 C10.4528569,23.5679128 10.5803308,23.8859441 10.8356243,24.1543342 C11.0868546,24.4184057 11.383991,24.5513733 11.7262988,24.5555556 C12.0683039,24.5513733 12.3656565,24.4183602 12.6169732,24.1543342 C12.8722668,23.8859441 13,23.5679128 13,23.200422 L13,0.678294098 C13,0.494957854 12.9360253,0.335805811 12.8085082,0.201428936 C12.680775,0.0673248146 12.5297429,0 12.3551526,0 L11.8916387,0 C11.0046385,0 10.2454147,0.332214548 9.61392413,0.996279971 C8.98252002,1.66061815 8.66666667,2.45910591 8.66666667,3.39165232 L8.66666667,11.8706695 C8.66666667,11.9624967 8.698654,12.04205 8.76241255,12.1091021 C8.82586851,12.1761087 8.90151424,12.2097483 8.98883103,12.2097483 Z" id="Shape"></path>
                </g>
            </g>
        </g>
    </g>
</svg>