<?xml version="1.0" encoding="UTF-8"?>
<svg width="64px" height="64px" viewBox="0 0 64 64" version="1.1" xmlns="http://www.w3.org/2000/svg" xmlns:xlink="http://www.w3.org/1999/xlink">
    <!-- Generator: Sketch 47.1 (45422) - http://www.bohemiancoding.com/sketch -->
    <title>Button</title>
    <desc>Created with Sketch.</desc>
    <defs>
        <path d="M32,64 C49.673112,64 64,49.673112 64,32 C64,14.326888 49.673112,0 32,0 C14.326888,0 0,14.326888 0,32 C0,49.673112 14.326888,64 32,64 Z" id="path-1"></path>
    </defs>
    <g id="Page-1" stroke="none" stroke-width="1" fill="none" fill-rule="evenodd">
        <g id="My-Day-Second-Version" transform="translate(-275.000000, -645.000000)">
            <g id="Button" transform="translate(275.000000, 645.000000)">
                <g>
                    <use fill-opacity="0.0299999993" fill="#FFFFFF" fill-rule="evenodd" xlink:href="#path-1"></use>
                    <path stroke="#FF2366" stroke-width="1" d="M32,63.5 C49.3969696,63.5 63.5,49.3969696 63.5,32 C63.5,14.6030304 49.3969696,0.5 32,0.5 C14.6030304,0.5 0.5,14.6030304 0.5,32 C0.5,49.3969696 14.6030304,63.5 32,63.5 Z"></path>
                </g>
                <path d="M42.7261899,26.6843964 C43.095461,27.0215431 43.0903851,27.5644065 42.7160381,27.8969817 L39.0677419,31.134733 C38.8837408,31.2981634 38.6413671,31.3815929 38.4002623,31.3815929 C38.1908818,31.3815929 37.9802323,31.3198779 37.8051141,31.1930193 L33.9867755,28.4375593 L30.7090192,31.4581652 L35.8851585,35.2913519 C36.2392019,35.5530692 36.3356438,36.0045029 36.1148426,36.3667928 L32.942411,41.5565664 C32.7685618,41.8399982 32.4424358,42 32.107427,42 C31.9526124,42 31.7952598,41.9668568 31.6493279,41.8948559 C31.1886908,41.6662819 31.0211865,41.1439902 31.274981,40.7302712 L34.0667207,36.1633619 L29.7103377,32.9370393 L27.8119547,37.2673745 C27.6825195,37.5645207 27.379235,37.7713802 27.0277296,37.8045235 L21.0521375,38.3759586 C21.0191442,38.3793872 20.983613,38.3816729 20.9506197,38.3816729 C20.4696791,38.3816729 20.057263,38.0548121 20.0052351,37.614807 C19.9506693,37.1439445 20.3288231,36.7222254 20.8516399,36.6719391 L26.2536563,36.1553618 L28.4223305,31.2090195 C28.4680135,31.1038755 28.5365381,31.0067315 28.6266351,30.9244449 L32.4944637,27.3609756 L29.9666702,25.5369547 L26.9224049,28.3598441 C26.5544028,28.6992766 25.9529098,28.7084195 25.5760249,28.3769872 C25.1991401,28.0466977 25.1915262,27.5049772 25.5569903,27.1655447 L29.2052866,23.7837918 C29.5466403,23.4683596 30.1011813,23.4375021 30.4831421,23.711791 L38.3342757,29.3781415 L41.37981,26.6752534 C41.7528879,26.3438211 42.3581879,26.3472497 42.7261899,26.6843964 Z M36.8672164,26.190905 C35.5830161,26.190905 34.5411896,25.2526086 34.5411896,24.096024 C34.5411896,22.9382964 35.5830161,22 36.8672164,22 C38.1514167,22 39.1932432,22.9382964 39.1932432,24.096024 C39.1932432,25.2526086 38.1514167,26.190905 36.8672164,26.190905 Z" id="Icon" fill="#FEFEFE"></path>
            </g>
        </g>
    </g>
</svg>